<?xml version="1.0" standalone="no"?>
<!DOCTYPE svg PUBLIC "-//W3C//DTD SVG 20010904//EN"
 "http://www.w3.org/TR/2001/REC-SVG-20010904/DTD/svg10.dtd">
<svg version="1.0" xmlns="http://www.w3.org/2000/svg"
 width="33.000000pt" height="32.000000pt" viewBox="0 0 33.000000 32.000000"
 preserveAspectRatio="xMidYMid meet">

<g transform="translate(0.000000,32.000000) scale(0.100000,-0.100000)"
fill="#003459" stroke="none">
<path d="M118 278 c-2 -19 -8 -22 -33 -20 -25 2 -34 -3 -49 -29 -18 -30 -18
-33 -2 -44 20 -15 21 -34 0 -50 -15 -11 -15 -14 0 -44 15 -27 22 -32 49 -29
27 2 33 -1 35 -19 3 -20 10 -23 43 -23 32 0 41 4 48 23 6 16 16 22 37 22 20 0
32 8 43 27 14 24 14 28 -3 47 -19 21 -19 21 0 42 17 19 17 23 3 47 -11 19 -23
27 -43 27 -21 0 -31 6 -37 23 -7 18 -16 22 -48 22 -33 0 -40 -3 -43 -22z m72
-7 c0 -25 17 -35 52 -33 19 2 28 -3 33 -19 4 -12 2 -26 -4 -32 -15 -15 -14
-42 4 -57 12 -10 12 -15 -1 -36 -12 -18 -20 -21 -33 -15 -20 11 -51 -9 -51
-33 0 -28 -49 -20 -60 10 -9 22 -15 25 -39 22 -23 -3 -32 1 -40 18 -7 17 -6
25 5 34 19 16 18 47 -2 58 -12 7 -13 13 -4 33 9 20 17 24 41 21 24 -3 30 0 39
22 12 33 60 38 60 7z"/>
<path d="M126 219 c-35 -27 -33 -58 7 -104 l33 -38 27 35 c34 44 36 91 5 112
-29 21 -40 20 -72 -5z m75 -21 c9 -17 8 -28 -6 -55 -10 -18 -24 -33 -31 -33
-17 0 -44 40 -44 65 0 46 60 63 81 23z"/>
<path d="M139 194 c-9 -11 -10 -20 -3 -32 15 -23 29 -25 48 -7 12 12 13 21 6
36 -13 23 -33 25 -51 3z m41 -19 c0 -8 -6 -15 -14 -15 -17 0 -28 14 -19 24 12
12 33 6 33 -9z"/>
</g>
</svg>
