<?xml version="1.0" standalone="no"?>
<!DOCTYPE svg PUBLIC "-//W3C//DTD SVG 20010904//EN"
 "http://www.w3.org/TR/2001/REC-SVG-20010904/DTD/svg10.dtd">
<svg version="1.0" xmlns="http://www.w3.org/2000/svg"
 width="33.000000pt" height="32.000000pt" viewBox="0 0 33.000000 32.000000"
 preserveAspectRatio="xMidYMid meet">

<g transform="translate(0.000000,32.000000) scale(0.100000,-0.100000)"
fill="#003459" stroke="none">
<path d="M77 254 l-47 -24 0 -89 c0 -48 3 -90 6 -94 4 -3 25 3 47 14 32 17 45
19 63 10 29 -13 32 4 4 19 -17 9 -20 21 -20 86 l0 75 30 -16 c28 -14 30 -20
30 -70 0 -30 5 -55 10 -55 6 0 10 25 10 55 0 50 2 56 30 70 l30 16 0 -50 c0
-27 5 -53 10 -56 6 -4 10 18 10 59 0 36 -4 66 -10 66 -5 0 -24 -7 -43 -16 -32
-15 -36 -15 -73 4 l-39 20 -48 -24z m33 -79 c0 -73 -1 -75 -30 -90 l-30 -16 0
75 c0 72 1 76 28 90 15 8 28 15 30 16 1 0 2 -34 2 -75z"/>
<path d="M246 113 c-3 -3 -6 -17 -6 -31 0 -21 -2 -22 -15 -12 -23 19 -20 -13
3 -33 24 -22 35 -21 55 1 22 24 24 50 2 32 -13 -11 -15 -8 -15 13 0 26 -12 42
-24 30z"/>
</g>
</svg>
