<?xml version="1.0" standalone="no"?>
<!DOCTYPE svg PUBLIC "-//W3C//DTD SVG 20010904//EN"
 "http://www.w3.org/TR/2001/REC-SVG-20010904/DTD/svg10.dtd">
<svg version="1.0" xmlns="http://www.w3.org/2000/svg"
 width="33.000000pt" height="32.000000pt" viewBox="0 0 33.000000 32.000000"
 preserveAspectRatio="xMidYMid meet">

<g transform="translate(0.000000,32.000000) scale(0.100000,-0.100000)"
fill="#003459" stroke="none">
<path d="M42 288 c-26 -26 -6 -68 33 -68 31 0 45 -19 45 -61 0 -40 -12 -55
-49 -61 -32 -4 -50 -32 -35 -56 23 -36 74 -21 74 23 0 27 35 62 45 45 4 -7 2
-22 -5 -35 -22 -42 10 -76 39 -41 9 11 9 19 0 34 -7 11 -9 27 -5 37 6 17 7 17
26 0 11 -10 20 -28 20 -40 0 -44 51 -59 74 -23 15 24 -3 52 -35 56 -36 6 -54
27 -53 64 1 25 7 36 30 49 35 19 39 53 6 57 -14 2 -24 -3 -28 -15 -12 -38 -21
-47 -51 -47 -38 0 -63 19 -63 48 0 40 -41 61 -68 34z m43 -29 c0 -7 -8 -15
-17 -17 -18 -3 -25 18 -11 32 10 10 28 1 28 -15z m105 -84 c10 -12 10 -18 0
-30 -25 -30 -61 -7 -46 30 3 8 12 15 19 15 8 0 20 -7 27 -15z m-105 -116 c0
-7 -8 -15 -17 -17 -18 -3 -25 18 -11 32 10 10 28 1 28 -15z m200 0 c0 -7 -8
-15 -17 -17 -18 -3 -25 18 -11 32 10 10 28 1 28 -15z"/>
</g>
</svg>
