<?xml version="1.0" standalone="no"?>
<!DOCTYPE svg PUBLIC "-//W3C//DTD SVG 20010904//EN"
 "http://www.w3.org/TR/2001/REC-SVG-20010904/DTD/svg10.dtd">
<svg version="1.0" xmlns="http://www.w3.org/2000/svg"
 width="33.000000pt" height="32.000000pt" viewBox="0 0 33.000000 32.000000"
 preserveAspectRatio="xMidYMid meet">

<g transform="translate(0.000000,32.000000) scale(0.100000,-0.100000)"
fill="#003459" stroke="none">
<path d="M98 293 c-18 -16 -42 -33 -53 -39 -33 -18 -51 -58 -40 -90 11 -29 40
-53 51 -41 4 4 0 15 -9 25 -10 10 -17 28 -17 39 0 19 28 53 45 53 4 0 18 11
31 25 40 43 114 26 128 -29 4 -15 14 -26 28 -28 27 -4 35 -32 17 -64 -7 -13
-9 -27 -6 -31 13 -12 47 30 47 59 0 27 -30 68 -49 68 -5 0 -13 9 -16 21 -9 26
-62 59 -97 59 -15 0 -42 -12 -60 -27z"/>
<path d="M92 158 c-7 -7 -12 -39 -12 -75 0 -59 2 -64 26 -73 33 -13 90 -13
115 0 16 9 19 22 19 79 0 54 -4 70 -16 75 -28 11 -120 6 -132 -6z m119 -9 c32
-16 12 -29 -46 -29 -54 0 -80 15 -54 31 19 12 76 11 100 -2z m19 -90 c0 -11
-65 -20 -98 -13 -52 10 -37 19 33 19 36 0 65 -3 65 -6z"/>
</g>
</svg>
