<?xml version="1.0" standalone="no"?>
<!DOCTYPE svg PUBLIC "-//W3C//DTD SVG 20010904//EN"
 "http://www.w3.org/TR/2001/REC-SVG-20010904/DTD/svg10.dtd">
<svg version="1.0" xmlns="http://www.w3.org/2000/svg"
 width="33.000000pt" height="32.000000pt" viewBox="0 0 33.000000 32.000000"
 preserveAspectRatio="xMidYMid meet">

<g transform="translate(0.000000,32.000000) scale(0.100000,-0.100000)"
fill="#FFFFFF" stroke="none">
<path d="M57 274 c-16 -16 -5 -55 22 -87 25 -27 30 -44 33 -92 3 -60 12 -73
38 -54 11 8 12 12 3 16 -8 3 -13 23 -13 49 0 36 -6 51 -35 83 -57 63 -51 71
60 71 110 0 119 -10 63 -67 -17 -18 -28 -36 -24 -40 4 -5 23 9 42 30 26 28 34
45 32 65 l-3 27 -106 3 c-58 1 -108 -1 -112 -4z"/>
<path d="M211 111 c-20 -20 -19 -53 3 -69 6 -5 31 -12 55 -16 35 -5 42 -4 34
6 -6 7 -11 25 -11 40 1 55 -44 76 -81 39z m54 -31 c0 -16 -6 -26 -18 -28 -19
-4 -32 20 -23 44 9 25 41 13 41 -16z"/>
</g>
</svg>
