<?xml version="1.0" encoding="UTF-8"?>
<svg version="1.1" xmlns="http://www.w3.org/2000/svg" width="512" height="512">
<path d="M0 0 C8.45896316 6.13029337 13.55811215 13.13577691 15.54296875 23.45703125 C16.89175855 33.34815647 12.2410845 42.65486621 7.921875 51.2734375 C7.47024994 52.19048965 7.01862488 53.10754181 6.55331421 54.05238342 C5.07770952 57.04495419 3.59155375 60.03215317 2.10546875 63.01953125 C1.06304527 65.1296317 0.02147223 67.24015247 -1.01928711 69.35107422 C-3.14235817 73.65594362 -5.2687305 77.95915701 -7.39746094 82.26123047 C-11.40091718 90.35935104 -15.35904656 98.4793758 -19.31231689 106.6020813 C-21.34800273 110.78393927 -23.3869172 114.96422213 -25.42578125 119.14453125 C-25.83325592 119.98009048 -26.24073059 120.81564972 -26.66055298 121.67652893 C-31.60586346 131.81545127 -36.56323617 141.9484756 -41.51953125 152.08203125 C-48.34363064 166.03473263 -55.15803222 179.99208147 -61.95703125 193.95703125 C-68.75603035 207.92198117 -75.57050256 221.87929519 -82.39453125 235.83203125 C-89.46405735 250.28694342 -96.52846955 264.74432152 -103.58203125 279.20703125 C-104.19632492 280.46655609 -104.19632492 280.46655609 -104.82302856 281.75152588 C-107.70132084 287.65321893 -110.57922574 293.55510083 -113.45703125 299.45703125 C-116.74842409 306.20716481 -120.0399997 312.95720916 -123.33203125 319.70703125 C-123.94621918 320.9663446 -123.94621918 320.9663446 -124.57281494 322.25109863 C-131.65681356 336.7749814 -138.75279631 351.29298768 -145.85198975 365.80944824 C-152.80217723 380.02152084 -159.74379837 394.2377405 -166.67645264 408.45837402 C-171.52524034 418.40444343 -176.38037722 428.34735614 -181.24609375 438.28515625 C-182.22917256 440.29361691 -183.2122455 442.30208044 -184.1953125 444.31054688 C-186.05345893 448.10672326 -187.91302396 451.9021999 -189.7734375 455.69726562 C-190.2050116 456.57898438 -190.63658569 457.46070313 -191.08123779 458.36914062 C-191.93572753 460.11459149 -192.79154586 461.85939262 -193.64874268 463.60351562 C-195.85104664 468.10061376 -198.00030595 472.61518163 -200.08105469 477.16992188 C-200.514935 478.11023254 -200.94881531 479.05054321 -201.39584351 480.01934814 C-202.21357863 481.79723789 -203.02068006 483.58007825 -203.81436157 485.36883545 C-207.28793993 492.88952674 -211.89641427 499.943614 -219.70703125 503.39453125 C-220.5371875 503.77480469 -221.36734375 504.15507812 -222.22265625 504.546875 C-230.51475401 507.92460014 -243.08717229 508.05068866 -251.48046875 504.55078125 C-260.17491672 499.73962427 -266.91260345 492.85225413 -270.62109375 483.53125 C-273.42093706 473.23462997 -271.11596366 464.68988766 -266.45703125 455.45703125 C-265.65862684 453.84516466 -264.8604709 452.23317499 -264.0625 450.62109375 C-262.7461687 447.97253171 -261.42504617 445.32716187 -260.08276367 442.69165039 C-256.71182919 436.06254046 -253.48904673 429.36928049 -250.2890625 422.65625 C-245.16671047 411.91132967 -239.95828859 401.21070243 -234.71377563 390.52496338 C-232.19843574 385.39946338 -229.68703579 380.27203384 -227.17578125 375.14453125 C-226.67971878 374.13174103 -226.18365631 373.11895081 -225.67256165 372.07546997 C-221.51716681 363.58781264 -217.38593322 355.08865587 -213.26953125 346.58203125 C-207.37594954 334.40404878 -201.45453362 322.23988227 -195.51953125 310.08203125 C-189.31905948 297.37996689 -183.12811818 284.67339863 -176.95703125 271.95703125 C-170.38123414 258.4069864 -163.78265449 244.86816328 -157.17626953 231.33300781 C-151.42398121 219.54708119 -145.68297389 207.75577912 -139.95703125 195.95703125 C-133.80614033 183.28264456 -127.63646953 170.61752342 -121.45703125 157.95703125 C-115.25723113 145.25464835 -109.06659597 132.54791495 -102.89453125 119.83203125 C-96.96643149 107.61910762 -91.02854369 95.41100076 -85.08203125 83.20703125 C-84.29052481 81.582358 -83.49902091 79.95768352 -82.70751953 78.33300781 C-79.00901654 70.74200187 -75.30870864 63.15188381 -71.60412598 55.56384277 C-69.90097502 52.07496678 -68.19870777 48.58565997 -66.496521 45.09631348 C-65.6958968 43.4557169 -64.89485026 41.81532635 -64.09332275 40.1751709 C-62.96997164 37.87642891 -61.84792139 35.57705817 -60.7265625 33.27734375 C-60.37001083 32.54694382 -60.01345917 31.81654388 -59.64610291 31.06401062 C-57.8142368 27.29794523 -56.01378686 23.52007357 -54.25561523 19.71899414 C-53.8981572 18.94816498 -53.54069916 18.17733582 -53.17240906 17.38314819 C-52.49856089 15.92493552 -51.82936428 14.46456015 -51.16584778 13.00161743 C-47.34164676 4.72350654 -42.69101344 -0.65901488 -34.45703125 -4.54296875 C-23.47327486 -8.27139982 -9.57611218 -6.01361576 0 0 Z " fill="#003459" transform="translate(385.45703125,5.54296875)"/>
<path d="M0 0 C0.65097656 0.60199219 1.30195313 1.20398438 1.97265625 1.82421875 C2.71644531 2.47777344 3.46023437 3.13132812 4.2265625 3.8046875 C20.01756406 18.4734859 26.28061326 39.33639557 27.06767845 60.3627224 C27.10814359 63.0289591 27.11923015 65.69356588 27.11791992 68.36010742 C27.12127853 69.36159821 27.12463715 70.36308899 27.12809753 71.39492798 C27.13752868 74.67736074 27.13954677 77.95974206 27.140625 81.2421875 C27.14384331 83.54608683 27.1472078 85.84998597 27.15071106 88.15388489 C27.15668297 92.97442091 27.15855298 97.79493906 27.15795898 102.61547852 C27.15785754 108.75685676 27.17150021 114.89811893 27.18873119 121.03946972 C27.19991459 125.79676325 27.20187624 130.55402929 27.20134926 135.31133461 C27.2025202 137.57367667 27.20689151 139.83601966 27.21468163 142.09834862 C27.26169068 157.16129614 27.22275027 172.04190541 22.72265625 186.57421875 C22.50577148 187.28465332 22.28888672 187.99508789 22.06542969 188.72705078 C16.08140545 207.48351935 3.30060163 220.60113567 -13.96484375 229.63671875 C-43.55371425 243.59312499 -82.44713377 244.18524627 -113.21875 233.3203125 C-131.73221515 226.28453065 -145.48846213 214.50519875 -154.5859375 196.7890625 C-160.40524987 183.68265868 -162.17262529 170.00926946 -162.18847656 155.81274414 C-162.19344147 154.73672943 -162.19840637 153.66071472 -162.20352173 152.55209351 C-162.21806894 149.0086807 -162.22493442 145.46531271 -162.23046875 141.921875 C-162.23470982 140.09468839 -162.23470982 140.09468839 -162.23903656 138.23058891 C-162.25400239 131.7789679 -162.26324717 125.32736907 -162.26757812 118.87573242 C-162.27304591 112.2524197 -162.29704587 105.6293143 -162.32555008 99.00606632 C-162.34429449 93.87810194 -162.3493884 88.75018621 -162.350914 83.62219048 C-162.35391659 81.18286448 -162.36186279 78.74353884 -162.37509918 76.3042469 C-162.46798858 57.86359953 -161.83342531 40.89023661 -154.02734375 23.82421875 C-153.60839844 22.89222656 -153.18945312 21.96023437 -152.7578125 21 C-143.59126468 2.48198841 -127.00242271 -7.74706597 -108.02734375 -14.17578125 C-75.71715533 -24.59295864 -26.9605728 -23.11648342 0 0 Z M-92.44613647 45.55731201 C-100.03854304 56.44220856 -98.57988696 70.84770442 -98.48828125 83.43359375 C-98.48589197 85.61305634 -98.48499253 87.79252102 -98.48550415 89.97198486 C-98.48239216 94.51742636 -98.46594652 99.06254886 -98.43896484 103.60791016 C-98.40490652 109.41689439 -98.39733964 115.22553069 -98.39885521 121.03460312 C-98.39831007 125.52660404 -98.38732107 130.01852983 -98.37285233 134.51050568 C-98.36651706 136.65219811 -98.36255315 138.79389899 -98.36106491 140.93560028 C-98.35670154 143.93084573 -98.33913795 146.92573117 -98.31787109 149.92089844 C-98.31877747 150.79384048 -98.31968384 151.66678253 -98.32061768 152.56617737 C-98.22116361 162.20365251 -96.66352631 170.50594462 -90.02734375 177.82421875 C-81.53956876 184.49434403 -71.64359889 185.41252263 -61.21484375 184.3671875 C-54.56067879 183.23369616 -47.67963969 180.87528292 -43.02734375 175.82421875 C-39.55415728 169.9069381 -36.9201051 164.4364628 -36.88017273 157.50694275 C-36.87301743 156.65068298 -36.86586212 155.79442322 -36.85848999 154.91221619 C-36.85580109 153.98075272 -36.85311218 153.04928925 -36.8503418 152.08959961 C-36.8437706 151.10206696 -36.8371994 150.1145343 -36.83042908 149.09707642 C-36.81071469 145.82773764 -36.79903573 142.55844482 -36.7890625 139.2890625 C-36.78498697 138.17010653 -36.78091145 137.05115055 -36.77671242 135.89828682 C-36.75585664 129.97231354 -36.74155444 124.04636336 -36.73217773 118.12036133 C-36.72113234 112.01641314 -36.68675223 105.91283139 -36.64700603 99.80901241 C-36.62078488 95.101622 -36.61248085 90.39431805 -36.60889626 85.68686104 C-36.60404222 83.4379384 -36.59246222 81.18901931 -36.57385826 78.94016838 C-36.54935699 75.7813556 -36.55045245 72.62347947 -36.55737305 69.46459961 C-36.53815796 68.08865883 -36.53815796 68.08865883 -36.51855469 66.68492126 C-36.58464283 58.34755972 -38.53766841 50.26119673 -44.15234375 43.88671875 C-53.14500651 36.06046832 -63.48102967 35.85158006 -74.88085938 36.60107422 C-81.81941671 37.32239376 -87.87109838 40.23606166 -92.44613647 45.55731201 Z " fill="#003459" transform="translate(180.02734375,44.17578125)"/>
<path d="M0 0 C1.00781021 0.00323273 1.00781021 0.00323273 2.03598022 0.00653076 C28.57256067 0.14239227 53.7063084 5.20364999 73.54296875 24.046875 C89.69612989 40.62888113 94.86599311 61.6677919 94.92700195 84.27636719 C94.93357315 85.34756302 94.94014435 86.41875885 94.94691467 87.52241516 C94.9665469 91.05140266 94.97829165 94.58034766 94.98828125 98.109375 C94.99235678 99.32375496 94.9964323 100.53813492 95.00063133 101.78931427 C95.02145542 108.22493822 95.03576949 114.66054111 95.04516602 121.09619141 C95.05618542 127.69236752 95.09054457 134.28820214 95.13033772 140.88425827 C95.15668571 145.99947671 95.16487418 151.11461624 95.16844749 156.22989655 C95.17327144 158.65838155 95.18476302 161.08686405 95.20348549 163.51528168 C95.37544356 187.30974549 93.81706462 212.92434461 76.75 231.3125 C75.73292969 232.44751953 75.73292969 232.44751953 74.6953125 233.60546875 C56.12365569 253.33372341 29.36917811 258.21238292 3.453125 259.17578125 C-15.54697576 259.72179743 -34.85153826 257.34983287 -52.25 249.3125 C-53.178125 248.89484375 -54.10625 248.4771875 -55.0625 248.046875 C-71.44808804 239.94718091 -83.33289012 224.99979932 -89.44140625 207.99609375 C-94.55242862 191.41827582 -94.55201268 174.73334126 -94.515625 157.5625 C-94.5169761 155.29199177 -94.51892032 153.02148382 -94.52142334 150.75097656 C-94.52435367 146.0175498 -94.52014481 141.28419909 -94.51074219 136.55078125 C-94.49934903 130.52624455 -94.50591979 124.50188614 -94.51788712 118.47735596 C-94.52516252 113.7963734 -94.52279188 109.11543214 -94.51763153 104.43444824 C-94.5163107 102.21480284 -94.51788687 99.99515351 -94.52259064 97.7755127 C-94.56805885 70.29936338 -92.41788179 43.55488893 -72.0703125 22.96875 C-62.60718537 14.05610949 -51.30379561 8.33001447 -38.9375 4.5625 C-37.98025024 4.26448486 -37.98025024 4.26448486 -37.00366211 3.96044922 C-24.95787018 0.51457615 -12.45187101 -0.05493357 0 0 Z M-23.25 63.3125 C-32.26051761 74.86086365 -30.54917286 90.93768926 -30.515625 104.75 C-30.51697535 106.72192431 -30.51891896 108.6938483 -30.52142334 110.66577148 C-30.52435719 114.78079424 -30.52013328 118.89572965 -30.51074219 123.01074219 C-30.49934877 128.25557918 -30.50591761 133.50021139 -30.51788712 138.74504089 C-30.5251529 142.81166088 -30.52279623 146.87823322 -30.51763153 150.94485474 C-30.51630805 152.87753321 -30.51789649 154.81021618 -30.52259064 156.7428894 C-31.17292751 178.42473386 -31.17292751 178.42473386 -21.6875 197.0625 C-12.12498593 204.07976779 -0.74251006 204.59438831 10.6484375 202.875 C17.66089416 201.14885682 22.88345111 197.29243309 27.09765625 191.44140625 C29.80599194 186.92751343 30.86815026 183.06967156 30.89717102 177.87460327 C30.90432632 176.99165588 30.91148163 176.1087085 30.91885376 175.19900513 C30.92154266 174.2379184 30.92423157 173.27683167 30.92700195 172.28662109 C30.93357315 171.26822144 30.94014435 170.24982178 30.94691467 169.20056152 C30.96663 165.82901941 30.97830746 162.45752184 30.98828125 159.0859375 C30.99235678 157.93263569 30.9964323 156.77933388 31.00063133 155.59108353 C31.02148625 149.48471506 31.03578953 143.37836902 31.04516602 137.27197266 C31.0562188 130.9773607 31.09060778 124.68310336 31.13033772 118.38861656 C31.1565357 113.53800823 31.16486079 108.68748392 31.16844749 103.83681107 C31.17330652 101.51728551 31.18490086 99.19776353 31.20348549 96.87830734 C31.22794 93.6235047 31.22689982 90.36961327 31.2199707 87.11474609 C31.23278076 86.16580475 31.24559082 85.2168634 31.25878906 84.23916626 C31.20100823 76.75120598 29.56660478 69.88407101 24.85546875 63.91015625 C11.40242689 53.14224291 -9.75119977 50.85206902 -23.25 63.3125 Z " fill="#003459" transform="translate(399.25,226.6875)"/>
</svg>
