<?xml version="1.0" standalone="no"?>
<!DOCTYPE svg PUBLIC "-//W3C//DTD SVG 20010904//EN"
 "http://www.w3.org/TR/2001/REC-SVG-20010904/DTD/svg10.dtd">
<svg version="1.0" xmlns="http://www.w3.org/2000/svg"
 width="512.000000pt" height="512.000000pt" viewBox="0 0 512.000000 512.000000"
 preserveAspectRatio="xMidYMid meet">

<g transform="translate(0.000000,512.000000) scale(0.100000,-0.100000)"
fill="#003459" stroke="none">
<path d="M2577 5102 c-14 -15 -17 -41 -17 -139 0 -102 -3 -122 -17 -135 -13
-10 -63 -18 -163 -26 -678 -55 -1298 -415 -1678 -975 -103 -152 -122 -198 -90
-225 37 -30 230 -123 250 -120 15 2 38 27 72 78 204 313 442 533 748 694 225
118 477 189 755 211 74 6 83 5 102 -14 19 -19 21 -33 21 -139 0 -103 3 -121
18 -135 41 -37 57 -26 289 205 123 122 226 230 229 240 10 32 -24 73 -239 286
-224 222 -243 235 -280 194z"/>
<path d="M3602 4508 c-29 -36 -123 -230 -120 -250 2 -15 35 -43 109 -93 153
-103 221 -159 344 -287 314 -325 494 -729 530 -1190 6 -79 5 -88 -14 -107 -19
-19 -33 -21 -139 -21 -103 0 -121 -3 -135 -18 -37 -41 -26 -57 205 -289 122
-123 230 -226 240 -229 9 -3 30 2 45 10 48 25 453 440 453 464 0 12 -9 31 -20
42 -18 18 -33 20 -138 20 -101 0 -121 3 -134 18 -10 12 -18 62 -26 162 -55
678 -415 1298 -975 1678 -152 103 -198 122 -225 90z"/>
<path d="M2366 3604 c-507 -100 -866 -533 -866 -1044 0 -527 387 -974 909
-1051 113 -16 302 -6 411 21 103 27 269 104 357 166 276 197 443 523 443 864
0 514 -362 948 -872 1045 -98 18 -288 18 -382 -1z m736 -688 c22 -17 39 -61
31 -83 -3 -10 -146 -159 -317 -330 -288 -290 -313 -313 -345 -313 -32 0 -54
18 -260 224 -210 210 -225 227 -225 261 0 43 26 72 72 81 32 7 38 2 223 -182
l189 -188 273 272 c253 252 275 272 307 272 19 0 43 -6 52 -14z"/>
<path d="M445 3081 c-52 -32 -445 -436 -445 -457 0 -11 7 -30 16 -42 14 -21
22 -22 139 -22 118 0 125 -1 138 -22 8 -14 19 -81 26 -163 53 -654 397 -1261
929 -1642 171 -122 242 -154 270 -120 30 36 123 229 120 249 -2 15 -27 38 -78
72 -308 201 -531 440 -688 737 -122 230 -196 491 -216 761 -6 79 -5 89 14 108
18 18 32 20 138 20 103 0 121 3 135 18 38 41 27 57 -211 294 -125 126 -234
228 -242 228 -8 0 -28 -9 -45 -19z"/>
<path d="M4232 1627 c-6 -7 -34 -48 -63 -92 -153 -236 -348 -431 -584 -585
-212 -138 -510 -248 -760 -279 -196 -24 -221 -25 -244 -2 -19 19 -21 33 -21
139 0 103 -3 121 -18 135 -41 37 -57 26 -289 -205 -123 -122 -226 -230 -229
-240 -3 -9 2 -30 10 -45 25 -48 440 -453 464 -453 12 0 31 9 42 20 18 18 20
33 20 138 0 101 3 121 18 134 12 10 62 18 162 26 622 50 1195 357 1583 847
106 133 197 280 197 317 0 32 -24 50 -158 117 -86 43 -113 49 -130 28z"/>
</g>
</svg>
