<?xml version="1.0" standalone="no"?>
<!DOCTYPE svg PUBLIC "-//W3C//DTD SVG 20010904//EN"
 "http://www.w3.org/TR/2001/REC-SVG-20010904/DTD/svg10.dtd">
<svg version="1.0" xmlns="http://www.w3.org/2000/svg"
 width="33.000000pt" height="32.000000pt" viewBox="0 0 33.000000 32.000000"
 preserveAspectRatio="xMidYMid meet">

<g transform="translate(0.000000,32.000000) scale(0.100000,-0.100000)"
fill="#FFFFFF" stroke="none">
<path d="M104 160 c0 -74 1 -105 3 -67 2 37 2 97 0 135 -2 37 -3 6 -3 -68z"/>
<path d="M138 273 c-10 -2 -18 -13 -18 -23 0 -16 4 -17 30 -10 44 13 55 21 39
31 -15 9 -23 10 -51 2z m32 -13 c-8 -5 -22 -9 -30 -9 -10 0 -8 3 5 9 27 12 43
12 25 0z"/>
<path d="M223 253 c9 -2 23 -2 30 0 6 3 -1 5 -18 5 -16 0 -22 -2 -12 -5z"/>
<path d="M155 233 c-26 -6 -44 -23 -24 -23 12 0 12 -2 -1 -10 -12 -8 -12 -10
5 -11 l20 0 -20 -9 c-18 -8 -17 -9 7 -9 14 -1 35 2 45 6 16 6 15 8 -7 14 -24
7 -24 7 -2 8 12 1 22 6 22 11 0 6 -12 8 -27 5 l-28 -6 30 15 c29 14 20 18 -20
9z"/>
<path d="M138 153 c12 -2 32 -2 45 0 12 2 2 4 -23 4 -25 0 -35 -2 -22 -4z"/>
<path d="M140 130 c21 -7 22 -8 5 -9 -17 -1 -21 -8 -21 -46 0 -25 3 -45 6 -44
3 0 21 6 40 13 l35 13 -35 12 -35 11 33 -3 c39 -4 43 10 5 16 l-28 4 30 2 c26
2 27 3 10 11 -17 7 -17 9 -2 9 9 1 17 6 17 11 0 6 -19 10 -42 9 -37 -1 -39 -2
-18 -9z m27 -76 c-3 -3 -12 -4 -19 -1 -8 3 -5 6 6 6 11 1 17 -2 13 -5z"/>
<path d="M228 133 c7 -3 16 -2 19 1 4 3 -2 6 -13 5 -11 0 -14 -3 -6 -6z"/>
<path d="M68 113 c7 -3 16 -2 19 1 4 3 -2 6 -13 5 -11 0 -14 -3 -6 -6z"/>
<path d="M268 63 c7 -3 16 -2 19 1 4 3 -2 6 -13 5 -11 0 -14 -3 -6 -6z"/>
<path d="M58 53 c7 -3 16 -2 19 1 4 3 -2 6 -13 5 -11 0 -14 -3 -6 -6z"/>
</g>
</svg>
