<?xml version="1.0" encoding="UTF-8"?>
<svg version="1.1" xmlns="http://www.w3.org/2000/svg"  width="512" height="512">
<path d="M0 0 C1.45019531 1.175625 1.45019531 1.175625 2.9296875 2.375 C3.4565918 2.80039062 3.98349609 3.22578125 4.52636719 3.6640625 C17.20626158 13.95848122 28.25468223 25.21286521 37.9296875 38.375 C38.3510498 38.94138184 38.77241211 39.50776367 39.20654297 40.09130859 C59.97496057 68.3528999 71.83473851 104.69333892 66.8046875 139.75 C63.17599082 162.02913033 51.91254178 181.5625239 33.859375 195.42578125 C15.22271996 207.82536907 -5.53544329 211.96937673 -27.60473633 208.14770508 C-36.78032047 206.28706394 -45.6824561 203.05536651 -54.50390625 199.95556641 C-76.76193557 192.28055523 -99.43615054 192.85721836 -121.55517578 200.62969971 C-146.23658252 209.2603229 -171.56748728 214.02577987 -196.3359375 202.74609375 C-205.05987414 198.37166266 -212.09617197 193.22296365 -219.0703125 186.375 C-219.7715625 185.69824219 -220.4728125 185.02148438 -221.1953125 184.32421875 C-236.55238525 168.39725463 -241.93769471 145.40910991 -242.3203125 123.9375 C-241.9216864 102.56671206 -236.48564514 82.51371309 -227.0703125 63.375 C-226.76367676 62.74400391 -226.45704102 62.11300781 -226.14111328 61.46289062 C-213.80315338 36.36483222 -194.52787196 14.85716901 -172.0703125 -1.625 C-171.4932959 -2.05167969 -170.9162793 -2.47835938 -170.32177734 -2.91796875 C-118.63686556 -40.6335934 -50.2112269 -39.18925026 0 0 Z " fill="#003459" transform="translate(343.0703125,270.625)"/>
<path d="M0 0 C14.49705483 13.16886462 20.37612079 34.75689203 21.69140625 53.63671875 C21.73265625 54.50167969 21.77390625 55.36664063 21.81640625 56.2578125 C21.85765625 57.09183594 21.89890625 57.92585938 21.94140625 58.78515625 C22.59759755 86.05810716 14.11974483 117.33392146 -4.62109375 137.7578125 C-16.97179149 150.6730277 -29.22183071 157.54433631 -47.18359375 158.2578125 C-61.68001444 157.57961738 -71.53344653 150.49876317 -81.15625 140.1328125 C-97.24197101 120.90065375 -98.81869386 93.52991198 -96.98144531 69.62792969 C-94.10539392 43.20081594 -82.38599637 17.06096435 -62.17578125 -0.515625 C-42.28390403 -15.31767463 -19.47947696 -15.54176516 0 0 Z " fill="#003459" transform="translate(367.18359375,43.7421875)"/>
<path d="M0 0 C9.06165767 7.02243883 16.18817301 15.10164576 22 25 C22.52352051 25.88848633 22.52352051 25.88848633 23.05761719 26.79492188 C29.42866468 37.89287557 33.02220637 49.60388549 36 62 C36.268125 63.10472656 36.53625 64.20945312 36.8125 65.34765625 C41.481348 89.437615 38.69410402 117.7976474 25.23828125 138.7421875 C23.58748332 140.94572451 21.86932483 142.98012551 20 145 C19.15115234 145.94939453 19.15115234 145.94939453 18.28515625 146.91796875 C9.67747957 156.07216458 -0.42277376 160.27831836 -12.90234375 160.98828125 C-27.4051072 161.04314669 -39.5847172 155.13662048 -49.87841797 145.24243164 C-51.27268315 143.84840127 -52.63707926 142.42469054 -54 141 C-55.07507813 139.88044922 -55.07507813 139.88044922 -56.171875 138.73828125 C-69.7890867 123.13295665 -77.48118405 101.34679899 -80 81 C-80.10957031 80.11570312 -80.21914062 79.23140625 -80.33203125 78.3203125 C-80.62664382 75.54702617 -80.8355487 72.78392565 -81 70 C-81.05414063 69.13503906 -81.10828125 68.27007812 -81.1640625 67.37890625 C-81.83113107 46.00239066 -76.84643465 23.13541849 -62.6875 6.625 C-45.54957241 -11.26944052 -20.6997624 -14.3284265 0 0 Z " fill="#003459" transform="translate(204,41)"/>
<path d="M0 0 C10.38960087 7.86284994 17.53897116 18.73366995 19.6875 31.75 C20.83177051 45.48634877 20.1580978 58.68747206 15.6875 71.75 C15.275 72.98621094 14.8625 74.22242188 14.4375 75.49609375 C8.65458429 91.28411079 -0.55308817 103.89022334 -12.3125 115.75 C-12.96089844 116.44738281 -13.60929687 117.14476562 -14.27734375 117.86328125 C-27.74442276 132.15422863 -48.43767637 141.60273172 -68.0625 142.1875 C-81.34169352 141.67865575 -92.75350373 137.09657413 -102.3125 127.75 C-113.01867544 114.80846925 -116.38614049 99.20513973 -115.0703125 82.71484375 C-111.87783591 54.34089364 -96.25664158 29.52947153 -75.04296875 10.9140625 C-66.97723329 4.52147674 -57.89107253 -0.51478117 -48.3125 -4.25 C-47.51199219 -4.5696875 -46.71148437 -4.889375 -45.88671875 -5.21875 C-30.86314008 -10.26555092 -13.21539635 -8.63247863 0 0 Z " fill="#003459" transform="translate(492.3125,146.25)"/>
<path d="M0 0 C24.99021714 15.89724209 43.11198062 40.12336066 50.15625 69.0078125 C53.51764371 84.21009563 53.4290732 101.70664041 45.69921875 115.6328125 C44.26755621 117.83648548 42.75614449 119.92443342 41.15625 122.0078125 C40.57875 122.8740625 40.00125 123.7403125 39.40625 124.6328125 C31.24565722 133.24677155 20.16446126 138.23277599 8.38671875 139.24609375 C-14.60744983 139.80692713 -34.42875504 128.94301091 -50.79541016 113.45458984 C-69.30941771 95.37277388 -82.6637084 70.85426597 -83.13647461 44.60620117 C-83.23862998 28.27773768 -81.26057973 15.24730208 -69.7421875 2.72265625 C-49.83479624 -16.09440086 -22.15050388 -12.66526336 0 0 Z " fill="#003459" transform="translate(82.84375,148.9921875)"/>
</svg>
