<?xml version="1.0" standalone="no"?>
<!DOCTYPE svg PUBLIC "-//W3C//DTD SVG 20010904//EN"
 "http://www.w3.org/TR/2001/REC-SVG-20010904/DTD/svg10.dtd">
<svg version="1.0" xmlns="http://www.w3.org/2000/svg"
 width="33.000000pt" height="32.000000pt" viewBox="0 0 33.000000 32.000000"
 preserveAspectRatio="xMidYMid meet">

<g transform="translate(0.000000,32.000000) scale(0.100000,-0.100000)"
fill="#003459" stroke="none">
<path d="M53 310 c-34 -14 -43 -42 -43 -130 0 -73 3 -83 25 -105 16 -17 35
-25 60 -25 31 0 35 -3 35 -25 l0 -26 37 26 c21 14 50 25 65 25 75 0 102 43 96
151 -3 63 -7 74 -31 95 -26 22 -37 24 -125 23 -53 0 -107 -4 -119 -9z m205
-49 c9 -5 12 -29 10 -82 l-3 -74 -35 -3 c-19 -2 -46 -12 -61 -23 -34 -24 -39
-24 -39 1 0 14 -7 20 -23 20 -37 0 -47 19 -47 87 0 48 4 64 18 72 20 12 162
14 180 2z"/>
<path d="M90 178 c0 -23 30 -38 79 -38 54 0 71 8 71 34 0 20 -5 21 -75 21 -64
0 -75 -2 -75 -17z"/>
</g>
</svg>
